<svg width="252" height="252" viewBox="0 0 252 252" fill="none" xmlns="http://www.w3.org/2000/svg">
<path d="M222 126C222 179.019 179.019 222 126 222C72.9807 222 30 179.019 30 126C30 72.9807 72.9807 30 126 30C179.019 30 222 72.9807 222 126ZM33.9722 126C33.9722 176.826 75.1744 218.028 126 218.028C176.826 218.028 218.028 176.826 218.028 126C218.028 75.1744 176.826 33.9722 126 33.9722C75.1744 33.9722 33.9722 75.1744 33.9722 126Z" fill="white" fill-opacity="0.1"/>
<g filter="url(#filter0_d)">
<path d="M193.882 58.1177C209.587 73.8227 219.361 94.4872 221.538 116.59C223.715 138.694 218.16 160.868 205.821 179.335C193.482 197.802 175.121 211.419 153.867 217.866C132.613 224.314 109.782 223.192 89.2621 214.692C68.7427 206.193 51.8051 190.841 41.3354 171.254C30.8657 151.666 27.5116 129.054 31.8447 107.271C36.1778 85.4875 47.9299 65.8805 65.0987 51.7907C82.2674 37.7008 103.79 29.9999 126.001 30L126.001 33.9722C104.709 33.972 84.0769 41.3543 67.6186 54.8612C51.1602 68.3681 39.8944 87.1638 35.7406 108.046C31.5868 128.928 34.802 150.604 44.8385 169.381C54.875 188.158 71.1118 202.875 90.7822 211.023C110.453 219.17 132.34 220.246 152.714 214.065C173.088 207.885 190.689 194.831 202.518 177.128C214.347 159.425 219.672 138.168 217.585 116.98C215.498 95.7911 206.129 75.9816 191.073 60.9265L193.882 58.1177Z" fill="url(#paint0_linear)"/>
</g>
<defs>
<filter id="filter0_d" x="0" y="0" width="252" height="252" filterUnits="userSpaceOnUse" color-interpolation-filters="sRGB">
<feFlood flood-opacity="0" result="BackgroundImageFix"/>
<feColorMatrix in="SourceAlpha" type="matrix" values="0 0 0 0 0 0 0 0 0 0 0 0 0 0 0 0 0 0 127 0"/>
<feOffset/>
<feGaussianBlur stdDeviation="15"/>
<feColorMatrix type="matrix" values="0 0 0 0 0 0 0 0 0 0.639216 0 0 0 0 1 0 0 0 0.5 0"/>
<feBlend mode="normal" in2="BackgroundImageFix" result="effect1_dropShadow"/>
<feBlend mode="normal" in="SourceGraphic" in2="effect1_dropShadow" result="shape"/>
</filter>
<linearGradient id="paint0_linear" x1="30" y1="126" x2="222" y2="126" gradientUnits="userSpaceOnUse">
<stop stop-color="#00CCFF"/>
<stop offset="1" stop-color="#00A2FF"/>
</linearGradient>
</defs>
</svg>
