<svg width="238" height="252" viewBox="0 0 238 252" fill="none" xmlns="http://www.w3.org/2000/svg">
<path d="M222 126C222 179.019 179.019 222 126 222C72.9807 222 30 179.019 30 126C30 72.9807 72.9807 30 126 30C179.019 30 222 72.9807 222 126ZM33.9722 126C33.9722 176.826 75.1744 218.028 126 218.028C176.826 218.028 218.028 176.826 218.028 126C218.028 75.1744 176.826 33.9722 126 33.9722C75.1744 33.9722 33.9722 75.1744 33.9722 126Z" fill="white" fill-opacity="0.1"/>
<g filter="url(#filter0_d)">
<path d="M207.494 176.742C198.648 190.948 186.243 202.595 171.508 210.528C156.772 218.461 140.219 222.405 123.49 221.967C106.761 221.53 90.4368 216.727 76.1364 208.034C61.836 199.342 50.0563 187.062 41.9654 172.413C33.8746 157.764 29.7537 141.255 30.0114 124.522C30.2691 107.789 34.8965 91.4138 43.4347 77.0208C51.9728 62.6278 64.1251 50.7168 78.6864 42.469C93.2477 34.2212 109.712 29.9231 126.447 30.001L126.428 33.9732C110.386 33.8985 94.6029 38.0187 80.6441 45.9253C66.6853 53.8318 55.0358 65.25 46.851 79.0474C38.6661 92.8448 34.2302 108.542 33.9831 124.583C33.736 140.623 37.6864 156.45 45.4425 170.493C53.1986 184.536 64.4909 196.307 78.1996 204.64C91.9083 212.973 107.557 217.577 123.594 217.996C139.631 218.416 155.499 214.636 169.625 207.031C183.75 199.426 195.642 188.261 204.122 174.643L207.494 176.742Z" fill="url(#paint0_linear)"/>
</g>
<defs>
<filter id="filter0_d" x="0" y="0" width="237.494" height="252" filterUnits="userSpaceOnUse" color-interpolation-filters="sRGB">
<feFlood flood-opacity="0" result="BackgroundImageFix"/>
<feColorMatrix in="SourceAlpha" type="matrix" values="0 0 0 0 0 0 0 0 0 0 0 0 0 0 0 0 0 0 127 0"/>
<feOffset/>
<feGaussianBlur stdDeviation="15"/>
<feColorMatrix type="matrix" values="0 0 0 0 0 0 0 0 0 0.639216 0 0 0 0 1 0 0 0 0.5 0"/>
<feBlend mode="normal" in2="BackgroundImageFix" result="effect1_dropShadow"/>
<feBlend mode="normal" in="SourceGraphic" in2="effect1_dropShadow" result="shape"/>
</filter>
<linearGradient id="paint0_linear" x1="30" y1="126" x2="222" y2="126" gradientUnits="userSpaceOnUse">
<stop stop-color="#00CCFF"/>
<stop offset="1" stop-color="#00A2FF"/>
</linearGradient>
</defs>
</svg>
