<svg width="252" height="252" viewBox="0 0 252 252" fill="none" xmlns="http://www.w3.org/2000/svg">
<path d="M222 126C222 179.019 179.019 222 126 222C72.9807 222 30 179.019 30 126C30 72.9807 72.9807 30 126 30C179.019 30 222 72.9807 222 126ZM33.9722 126C33.9722 176.826 75.1744 218.028 126 218.028C176.826 218.028 218.028 176.826 218.028 126C218.028 75.1744 176.826 33.9722 126 33.9722C75.1744 33.9722 33.9722 75.1744 33.9722 126Z" fill="white" fill-opacity="0.1"/>
<g filter="url(#filter0_d)">
<path d="M222 126C222 179.019 179.019 222 126 222C72.9807 222 30 179.019 30 126C30 72.9807 72.9807 30 126 30C179.019 30 222 72.9807 222 126ZM33.9722 126C33.9722 176.826 75.1744 218.028 126 218.028C176.826 218.028 218.028 176.826 218.028 126C218.028 75.1744 176.826 33.9722 126 33.9722C75.1744 33.9722 33.9722 75.1744 33.9722 126Z" fill="url(#paint0_linear)"/>
</g>
<defs>
<filter id="filter0_d" x="0" y="0" width="252" height="252" filterUnits="userSpaceOnUse" color-interpolation-filters="sRGB">
<feFlood flood-opacity="0" result="BackgroundImageFix"/>
<feColorMatrix in="SourceAlpha" type="matrix" values="0 0 0 0 0 0 0 0 0 0 0 0 0 0 0 0 0 0 127 0"/>
<feOffset/>
<feGaussianBlur stdDeviation="15"/>
<feColorMatrix type="matrix" values="0 0 0 0 0 0 0 0 0 0.639216 0 0 0 0 1 0 0 0 0.5 0"/>
<feBlend mode="normal" in2="BackgroundImageFix" result="effect1_dropShadow"/>
<feBlend mode="normal" in="SourceGraphic" in2="effect1_dropShadow" result="shape"/>
</filter>
<linearGradient id="paint0_linear" x1="30" y1="126" x2="222" y2="126" gradientUnits="userSpaceOnUse">
<stop stop-color="#00CCFF"/>
<stop offset="1" stop-color="#00A2FF"/>
</linearGradient>
</defs>
</svg>
