<svg width="145" height="31" viewBox="0 0 145 31" fill="none" xmlns="http://www.w3.org/2000/svg">
<path d="M12.1491 0H24.1575V19.3348C24.1575 20.9575 23.8291 22.4884 23.1724 23.9274C22.547 25.3358 21.687 26.5758 20.5925 27.6474C19.498 28.6884 18.2159 29.5151 16.7461 30.1274C15.2763 30.7091 13.7283 31 12.1022 31C10.4448 31 8.8812 30.6938 7.41143 30.0815C5.94165 29.4691 4.6595 28.6425 3.56499 27.6015C2.47048 26.5299 1.59486 25.2746 0.938155 23.8356C0.312718 22.3965 0 20.8351 0 19.1511H3.14282C3.14282 20.3758 3.37736 21.524 3.84644 22.5956C4.31551 23.6672 4.94095 24.601 5.72275 25.397C6.53582 26.1625 7.48961 26.7748 8.58412 27.2341C9.67864 27.6933 10.8513 27.923 12.1022 27.923C13.3218 27.923 14.4632 27.7086 15.5265 27.28C16.621 26.8207 17.5748 26.2084 18.3878 25.443C19.2009 24.6775 19.842 23.7743 20.3111 22.7333C20.7801 21.6617 21.0147 20.5289 21.0147 19.3348V3.07704H12.1491V0Z" fill="#383838"/>
<path d="M54 26.4993C52.5615 27.9077 50.8728 29.0099 48.934 29.8059C47.0264 30.602 44.9781 31 42.789 31C40.6 31 38.5361 30.602 36.5972 29.8059C34.6896 28.9793 33.0166 27.877 31.5781 26.4993C30.1709 25.0909 29.0451 23.4528 28.2007 21.5852C27.3877 19.6869 26.9811 17.6662 26.9811 15.523C26.9811 13.3798 27.3877 11.3743 28.2007 9.50667C29.0451 7.60839 30.1709 5.95506 31.5781 4.54667C33.0166 3.13827 34.6896 2.03605 36.5972 1.24C38.5361 0.413334 40.6 0 42.789 0C44.9781 0 47.0264 0.413334 48.934 1.24C50.8728 2.03605 52.5615 3.13827 54 4.54667L51.7484 6.70518C50.5914 5.60296 49.231 4.73037 47.6675 4.08741C46.1351 3.41383 44.509 3.07704 42.789 3.07704C41.1004 3.07704 39.4899 3.41383 37.9575 4.08741C36.4565 4.73037 35.1118 5.61827 33.9235 6.75111C32.7664 7.85333 31.8439 9.16988 31.1559 10.7007C30.4679 12.201 30.1239 13.8084 30.1239 15.523C30.1239 17.1763 30.4523 18.7531 31.109 20.2533C31.7657 21.723 32.657 23.0395 33.7828 24.203C34.9398 25.3358 36.2845 26.239 37.8168 26.9126C39.3491 27.5862 41.0065 27.923 42.789 27.923C44.4777 27.923 46.1039 27.6168 47.6675 27.0044C49.231 26.3615 50.5914 25.4583 51.7484 24.2948L54 26.4993Z" fill="#383838"/>
<path d="M67.0042 16.8875L66.0281 16.6117V9L64 9.05516V9.66189L64.9219 9.88252V16.6117L64 16.8875V17.4943H67.0042V16.8875Z" fill="#383838"/>
<path d="M72.9112 14.7143C72.9112 14.7143 72.9654 14.4054 72.9654 14.1297C72.9654 12.4749 72.2604 11.5372 70.6878 11.5372C69.1152 11.5372 68.0307 12.861 68.0307 14.6261C68.0307 16.4463 68.8983 17.6046 70.6336 17.6046C71.9351 17.6046 72.9437 16.689 72.9437 16.689L72.5641 16.1153C72.5641 16.1153 71.8266 16.7221 70.742 16.7221C69.8093 16.7221 69.1694 15.9499 69.1694 14.7364L72.9112 14.7143ZM69.2128 13.909C69.2779 13.0817 69.7659 12.3977 70.6336 12.3977C71.5012 12.3977 71.8158 13.0817 71.8158 13.909H69.2128Z" fill="#383838"/>
<path d="M80.0697 12.3095V11.7027L78.1717 11.7468C78.1717 11.7468 77.7921 11.5372 77.0871 11.5372C75.6772 11.5372 74.7011 12.2543 74.7011 13.6884C74.7011 15.0122 75.5362 15.3983 75.5362 15.3983C75.5362 15.3983 74.9722 16.2808 74.9722 16.6448C74.9722 17.2185 75.623 17.2736 75.623 17.2736C75.623 17.2736 74.4842 17.6597 74.4842 18.6526C74.4842 19.866 75.5688 20.2521 77.0871 20.2521C78.9851 20.2521 79.907 19.4799 79.907 18.2665C79.907 17.2185 79.1478 16.6669 77.7379 16.6669H76.0568L76.111 15.6299C76.111 15.6299 76.4364 15.7292 76.9244 15.7292C78.3344 15.7292 79.3105 15.0673 79.3105 13.5781C79.3105 12.861 79.0176 12.4639 79.0176 12.4639L80.0697 12.3095ZM77.0329 12.3095C77.8463 12.3095 78.2259 12.8059 78.2259 13.6332C78.2259 14.5709 77.8463 14.957 76.9787 14.957C76.1653 14.957 75.7857 14.4054 75.7857 13.6332C75.7857 12.7507 76.1653 12.3095 77.0329 12.3095ZM77.4667 17.4943C78.3344 17.4943 78.8767 17.6597 78.8767 18.3768C78.8767 19.0938 78.3344 19.4248 77.2498 19.4248C76.2195 19.4248 75.5688 19.2593 75.5688 18.4871C75.5688 17.8252 76.2737 17.4943 76.2737 17.4943H77.4667Z" fill="#383838"/>
<path d="M81.7503 13.3575H82.4553L82.6071 12.5301C82.6071 12.5301 83.0518 12.3646 83.7025 12.3646C84.3532 12.3646 84.7328 12.6956 84.7328 13.3575V14.24H83.8652C82.3468 14.24 81.3707 14.6812 81.3707 15.9499C81.3707 16.9979 81.9672 17.6046 82.9975 17.6046C83.7567 17.6046 84.4075 17.0971 84.7762 16.7221L85.004 17.4943L86.685 17.4391V16.8324L85.8174 16.6117V13.2471C85.8174 11.9785 85.0691 11.5372 83.811 11.5372C82.8891 11.5372 81.6961 11.9785 81.6961 11.9785L81.7503 13.3575ZM84.7328 14.957V15.8395C84.7328 15.8395 84.0821 16.7221 83.2687 16.7221C82.7806 16.7221 82.477 16.3911 82.477 15.8947C82.477 15.2328 82.8891 14.957 83.9736 14.957H84.7328Z" fill="#383838"/>
<path d="M90.8327 16.8875L89.8566 16.6117V9L87.8285 9.05516V9.66189L88.7504 9.88252V16.6117L87.8285 16.8875V17.4943H90.8327V16.8875Z" fill="#383838"/>
<path d="M95.4107 16.6228L94.5214 16.8324V17.4943H97.5039V16.8324L96.4844 16.6228L96.9074 15.3983H99.7273L100.139 16.6228L99.1308 16.8324V17.4943H102.276V16.8324L101.376 16.6228L98.9681 9.77221L97.8835 9.82736L95.4107 16.6228ZM99.4344 14.5158H97.2003L98.339 11.1953L99.4344 14.5158Z" fill="#383838"/>
<path d="M109.267 16.8324L108.345 16.6117V9L106.339 9.05516V9.66189L107.261 9.88252V11.7138C106.979 11.6145 106.632 11.5372 106.23 11.5372C104.278 11.5372 103.356 12.861 103.356 14.7364C103.356 16.4463 104.061 17.6046 105.634 17.6046C106.458 17.6046 107.022 17.1854 107.337 16.8655L107.423 17.4943L109.267 17.4391V16.8324ZM107.261 15.8947C107.261 15.8947 106.773 16.7221 105.851 16.7221C104.875 16.7221 104.495 15.8395 104.495 14.6261C104.495 13.4126 104.864 12.4198 106.122 12.4198C106.881 12.4198 107.261 12.6404 107.261 12.6404V15.8947Z" fill="#383838"/>
<path d="M111.818 12.4198L112.578 12.3095V11.6476L110.137 11.7027V12.3095L110.68 12.4749L112.458 17.4943H113.651L115.495 12.4198L116.092 12.3095V11.6476L113.662 11.7027V12.3095L114.41 12.4749L113.109 16.5014L111.818 12.4198Z" fill="#383838"/>
<path d="M117.822 9.82736C117.822 10.3238 118.094 10.5996 118.527 10.5996C118.853 10.5996 119.232 10.3238 119.232 9.82736C119.232 9.27579 118.961 9.05516 118.527 9.05516C118.148 9.05516 117.822 9.33095 117.822 9.82736ZM119.937 16.8875L119.124 16.6117V11.6476L117.117 11.7027V12.3095L118.039 12.5301V16.6117L117.117 16.8875V17.4943H119.937V16.8875Z" fill="#383838"/>
<path d="M122.117 15.7292H121.358V17.3619C121.358 17.3619 122.073 17.6046 123.071 17.6046C124.373 17.6046 125.457 16.9868 125.457 15.7182C125.457 13.8318 122.431 14.2841 122.431 13.1037C122.431 12.5411 122.844 12.3646 123.397 12.3646C123.939 12.3646 124.275 12.497 124.275 12.497L124.449 13.3575H125.154L125.186 11.8682C125.186 11.8682 124.188 11.5372 123.332 11.5372C122.214 11.5372 121.347 12.1109 121.347 13.2582C121.347 15.2659 124.373 14.7143 124.373 15.9057C124.373 16.5897 123.798 16.7772 123.147 16.7772C122.562 16.7772 122.236 16.6779 122.236 16.6779L122.117 15.7292Z" fill="#383838"/>
<path d="M129.684 11.5372C128.058 11.5372 126.919 12.7507 126.919 14.6261C126.919 16.6117 127.895 17.6046 129.522 17.6046C131.149 17.6046 132.233 16.336 132.233 14.4606C132.233 12.6956 131.311 11.5372 129.684 11.5372ZM129.63 12.4198C130.715 12.4198 131.094 13.3023 131.094 14.5158C131.094 15.9499 130.66 16.7221 129.576 16.7221C128.491 16.7221 128.058 15.8947 128.058 14.5709C128.058 13.1368 128.546 12.4198 129.63 12.4198Z" fill="#383838"/>
<path d="M135.436 11.6476L133.646 11.7027V12.3095L134.568 12.5301V16.6117L133.646 16.8875V17.4943H136.737V16.8875L135.653 16.6117V13.3354C135.891 13.0155 136.412 12.4749 137.225 12.4749L137.388 13.3023H138.093L138.147 11.7027C138.147 11.7027 137.713 11.5372 137.171 11.5372C136.434 11.5372 135.805 12.144 135.534 12.4529L135.436 11.6476Z" fill="#383838"/>
<path d="M140.694 12.4198L141.453 12.3095V11.6476L138.905 11.7027V12.3095L139.556 12.4749L141.497 17.5163C141.02 18.5864 140.532 19.3145 139.772 19.3145H139.23L139.133 20.0867C139.133 20.0867 139.556 20.1418 139.827 20.1418C141.616 20.1418 142.18 18.3216 142.755 16.7883L144.295 12.4198L145 12.3095V11.6476L142.43 11.7027V12.3095L143.189 12.4749L141.996 16.2808L140.694 12.4198Z" fill="#383838"/>
<path d="M65.3557 28.6282H64.4881V30.5587C64.4881 30.5587 65.5835 31 66.7222 31C68.2406 31 69.5529 30.2388 69.5529 28.5841C69.5529 26.102 65.6485 26.7418 65.6485 25.065C65.6485 24.5135 66.1149 23.995 67.091 23.995C67.6875 23.995 68.2406 24.1936 68.2406 24.1936L68.6094 25.3739H69.3143L69.3686 23.4986C69.3686 23.4986 68.1105 23.0573 67.0801 23.0573C65.7244 23.0573 64.5097 23.7082 64.5097 25.2526C64.5097 27.8891 68.425 27.1831 68.425 28.8819C68.425 29.6652 67.5573 30.0623 66.7656 30.0623C66.0607 30.0623 65.5726 29.7865 65.5726 29.7865L65.3557 28.6282Z" fill="#383838"/>
<path d="M76.0568 28.1097C76.0568 28.1097 76.111 27.8009 76.111 27.5251C76.111 25.8703 75.4061 24.9327 73.8335 24.9327C72.2609 24.9327 71.1763 26.2564 71.1763 28.0215C71.1763 29.8417 72.0439 31 73.7792 31C75.0807 31 76.0893 30.0844 76.0893 30.0844L75.7097 29.5107C75.7097 29.5107 74.9722 30.1175 73.8877 30.1175C72.955 30.1175 72.3151 29.3453 72.3151 28.1318L76.0568 28.1097ZM72.3585 27.3044C72.4235 26.4771 72.9116 25.7931 73.7792 25.7931C74.6469 25.7931 74.9614 26.4771 74.9614 27.3044H72.3585Z" fill="#383838"/>
<path d="M79.3651 25.043L77.5756 25.0981V25.7049L78.4975 25.9255V30.0072L77.5756 30.283V30.8897H80.6666V30.283L79.582 30.0072V26.7308C79.8206 26.4109 80.3412 25.8703 81.1546 25.8703L81.3173 26.6977H82.0223L82.0765 25.0981C82.0765 25.0981 81.6427 24.9327 81.1004 24.9327C80.3629 24.9327 79.7339 25.5394 79.4627 25.8483L79.3651 25.043Z" fill="#383838"/>
<path d="M84.4609 25.8152L85.22 25.7049V25.043L82.7798 25.0981V25.7049L83.3221 25.8703L85.1007 30.8897H86.2938L88.1375 25.8152L88.734 25.7049V25.043L86.3046 25.0981V25.7049L87.0529 25.8703L85.7515 29.8968L84.4609 25.8152Z" fill="#383838"/>
<path d="M90.4649 23.2228C90.4649 23.7192 90.736 23.995 91.1699 23.995C91.4952 23.995 91.8748 23.7192 91.8748 23.2228C91.8748 22.6712 91.6037 22.4506 91.1699 22.4506C90.7903 22.4506 90.4649 22.7264 90.4649 23.2228ZM92.5798 30.283L91.7664 30.0072V25.043L89.7599 25.0981V25.7049L90.6818 25.9255V30.0072L89.7599 30.283V30.8897H92.5798V30.283Z" fill="#383838"/>
<path d="M97.8395 26.8632H98.5444L98.5987 25.3739C98.5987 25.3739 97.731 24.9327 96.7549 24.9327C95.0196 24.9327 93.9351 26.2013 93.9351 27.9663C93.9351 29.8417 94.8569 31 96.6465 31C97.8395 31 98.8156 30.1175 98.8156 30.1175L98.436 29.4556C98.436 29.4556 97.7852 30.1175 96.7549 30.1175C95.7246 30.1175 95.0738 29.3453 95.0738 27.856C95.0738 26.4771 95.6703 25.8152 96.7007 25.8152C97.243 25.8152 97.6768 25.9255 97.6768 25.9255L97.8395 26.8632Z" fill="#383838"/>
<path d="M104.887 28.1097C104.887 28.1097 104.941 27.8009 104.941 27.5251C104.941 25.8703 104.236 24.9327 102.663 24.9327C101.091 24.9327 100.006 26.2564 100.006 28.0215C100.006 29.8417 100.874 31 102.609 31C103.91 31 104.919 30.0844 104.919 30.0844L104.539 29.5107C104.539 29.5107 103.802 30.1175 102.717 30.1175C101.785 30.1175 101.145 29.3453 101.145 28.1318L104.887 28.1097ZM101.188 27.3044C101.253 26.4771 101.741 25.7931 102.609 25.7931C103.477 25.7931 103.791 26.4771 103.791 27.3044H101.188Z" fill="#383838"/>
<path d="M107.23 29.1246H106.47V30.7573C106.47 30.7573 107.186 31 108.184 31C109.485 31 110.57 30.3822 110.57 29.1136C110.57 27.2272 107.544 27.6795 107.544 26.4991C107.544 25.9365 107.956 25.76 108.509 25.76C109.052 25.76 109.388 25.8924 109.388 25.8924L109.561 26.7529H110.266L110.299 25.2636C110.299 25.2636 109.301 24.9327 108.444 24.9327C107.327 24.9327 106.46 25.5063 106.46 26.6536C106.46 28.6613 109.485 28.1097 109.485 29.3011C109.485 29.9851 108.911 30.1726 108.26 30.1726C107.674 30.1726 107.349 30.0734 107.349 30.0734L107.23 29.1246Z" fill="#383838"/>
</svg>
