<svg width="198" height="60" viewBox="0 0 198 60" fill="none" xmlns="http://www.w3.org/2000/svg">
<path d="M17.5119 4.5H32.8719V29.76C32.8719 31.88 32.4519 33.88 31.6119 35.76C30.8119 37.6 29.7119 39.22 28.3119 40.62C26.9119 41.98 25.2719 43.06 23.3919 43.86C21.5119 44.62 19.5319 45 17.4519 45C15.3319 45 13.3319 44.6 11.4519 43.8C9.57188 43 7.93188 41.92 6.53188 40.56C5.13188 39.16 4.01188 37.52 3.17188 35.64C2.37188 33.76 1.97188 31.72 1.97188 29.52H5.99188C5.99188 31.12 6.29188 32.62 6.89188 34.02C7.49188 35.42 8.29188 36.64 9.29188 37.68C10.3319 38.68 11.5519 39.48 12.9519 40.08C14.3519 40.68 15.8519 40.98 17.4519 40.98C19.0119 40.98 20.4719 40.7 21.8319 40.14C23.2319 39.54 24.4519 38.74 25.4919 37.74C26.5319 36.74 27.3519 35.56 27.9519 34.2C28.5519 32.8 28.8519 31.32 28.8519 29.76V8.52H17.5119V4.5ZM71.0436 39.12C69.2036 40.96 67.0436 42.4 64.5636 43.44C62.1236 44.48 59.5036 45 56.7036 45C53.9036 45 51.2636 44.48 48.7836 43.44C46.3436 42.36 44.2036 40.92 42.3636 39.12C40.5636 37.28 39.1236 35.14 38.0436 32.7C37.0036 30.22 36.4836 27.58 36.4836 24.78C36.4836 21.98 37.0036 19.36 38.0436 16.92C39.1236 14.44 40.5636 12.28 42.3636 10.44C44.2036 8.6 46.3436 7.16 48.7836 6.12C51.2636 5.04 53.9036 4.5 56.7036 4.5C59.5036 4.5 62.1236 5.04 64.5636 6.12C67.0436 7.16 69.2036 8.6 71.0436 10.44L68.1636 13.26C66.6836 11.82 64.9436 10.68 62.9436 9.84C60.9836 8.96 58.9036 8.52 56.7036 8.52C54.5436 8.52 52.4836 8.96 50.5236 9.84C48.6036 10.68 46.8836 11.84 45.3636 13.32C43.8836 14.76 42.7036 16.48 41.8236 18.48C40.9436 20.44 40.5036 22.54 40.5036 24.78C40.5036 26.94 40.9236 29 41.7636 30.96C42.6036 32.88 43.7436 34.6 45.1836 36.12C46.6636 37.6 48.3836 38.78 50.3436 39.66C52.3036 40.54 54.4236 40.98 56.7036 40.98C58.8636 40.98 60.9436 40.58 62.9436 39.78C64.9436 38.94 66.6836 37.76 68.1636 36.24L71.0436 39.12Z" fill="white"/>
<path d="M87.038 26.88V17.22L84.42 17.29V18.06L85.61 18.34V26.88L84.42 27.23V28H88.298V27.23L87.038 26.88ZM91.0913 24.5L95.9213 24.472C95.9213 24.472 95.9913 24.08 95.9913 23.73C95.9913 21.63 95.0813 20.44 93.0513 20.44C91.0213 20.44 89.6213 22.12 89.6213 24.36C89.6213 26.67 90.7413 28.14 92.9813 28.14C94.6613 28.14 95.9633 26.978 95.9633 26.978L95.4733 26.25C95.4733 26.25 94.5213 27.02 93.1213 27.02C91.9173 27.02 91.0913 26.04 91.0913 24.5ZM94.5073 23.45H91.1473C91.2313 22.4 91.8613 21.532 92.9813 21.532C94.1013 21.532 94.5073 22.4 94.5073 23.45ZM105.162 21.42V20.65L102.712 20.706C102.712 20.706 102.222 20.44 101.312 20.44C99.4919 20.44 98.2319 21.35 98.2319 23.17C98.2319 24.85 99.3099 25.34 99.3099 25.34C99.3099 25.34 98.5819 26.46 98.5819 26.922C98.5819 27.65 99.4219 27.72 99.4219 27.72C99.4219 27.72 97.9519 28.21 97.9519 29.47C97.9519 31.01 99.3519 31.5 101.312 31.5C103.762 31.5 104.952 30.52 104.952 28.98C104.952 27.65 103.972 26.95 102.152 26.95H99.9819L100.052 25.634C100.052 25.634 100.472 25.76 101.102 25.76C102.922 25.76 104.182 24.92 104.182 23.03C104.182 22.12 103.804 21.616 103.804 21.616L105.162 21.42ZM101.242 21.42C102.292 21.42 102.782 22.05 102.782 23.1C102.782 24.29 102.292 24.78 101.172 24.78C100.122 24.78 99.6319 24.08 99.6319 23.1C99.6319 21.98 100.122 21.42 101.242 21.42ZM100.262 28H101.802C102.922 28 103.622 28.21 103.622 29.12C103.622 30.03 102.922 30.45 101.522 30.45C100.192 30.45 99.3519 30.24 99.3519 29.26C99.3519 28.42 100.262 28 100.262 28ZM107.261 21L107.331 22.75H108.241L108.437 21.7C108.437 21.7 109.011 21.49 109.851 21.49C110.691 21.49 111.181 21.91 111.181 22.75V23.87H110.061C108.101 23.87 106.841 24.43 106.841 26.04C106.841 27.37 107.611 28.14 108.941 28.14C109.921 28.14 110.761 27.496 111.237 27.02L111.531 28L113.701 27.93V27.16L112.581 26.88V22.61C112.581 21 111.615 20.44 109.991 20.44C108.801 20.44 107.261 21 107.261 21ZM110.201 24.78H111.181V25.9C111.181 25.9 110.341 27.02 109.291 27.02C108.661 27.02 108.269 26.6 108.269 25.97C108.269 25.13 108.801 24.78 110.201 24.78ZM117.865 26.88V17.22L115.247 17.29V18.06L116.437 18.34V26.88L115.247 27.23V28H119.125V27.23L117.865 26.88ZM123.885 27.16V28H127.735V27.16L126.419 26.894L126.965 25.34H130.605L131.137 26.894L129.835 27.16V28H133.895V27.16L132.733 26.894L129.625 18.2L128.225 18.27L125.033 26.894L123.885 27.16ZM127.343 24.22L128.813 20.006L130.227 24.22H127.343ZM141.73 26.88V17.22L139.14 17.29V18.06L140.33 18.34V20.664C139.966 20.538 139.518 20.44 139 20.44C136.48 20.44 135.29 22.12 135.29 24.5C135.29 26.67 136.2 28.14 138.23 28.14C139.294 28.14 140.022 27.608 140.428 27.202L140.54 28L142.92 27.93V27.16L141.73 26.88ZM140.33 21.84V25.97C140.33 25.97 139.7 27.02 138.51 27.02C137.25 27.02 136.76 25.9 136.76 24.36C136.76 22.82 137.236 21.56 138.86 21.56C139.84 21.56 140.33 21.84 140.33 21.84ZM147.193 21.42V20.58L144.043 20.65V21.42L144.743 21.63L147.039 28H148.579L150.959 21.56L151.729 21.42V20.58L148.593 20.65V21.42L149.559 21.63L147.879 26.74L146.213 21.56L147.193 21.42ZM153.963 18.27C153.963 18.9 154.313 19.25 154.873 19.25C155.293 19.25 155.783 18.9 155.783 18.27C155.783 17.57 155.433 17.29 154.873 17.29C154.383 17.29 153.963 17.64 153.963 18.27ZM155.643 26.88V20.58L153.053 20.65V21.42L154.243 21.7V26.88L153.053 27.23V28H156.693V27.23L155.643 26.88ZM159.507 25.76H158.527V27.832C158.527 27.832 159.451 28.14 160.739 28.14C162.419 28.14 163.819 27.356 163.819 25.746C163.819 23.352 159.913 23.926 159.913 22.428C159.913 21.714 160.445 21.49 161.159 21.49C161.859 21.49 162.293 21.658 162.293 21.658L162.517 22.75H163.427L163.469 20.86C163.469 20.86 162.181 20.44 161.075 20.44C159.633 20.44 158.513 21.168 158.513 22.624C158.513 25.172 162.419 24.472 162.419 25.984C162.419 26.852 161.677 27.09 160.837 27.09C160.081 27.09 159.661 26.964 159.661 26.964L159.507 25.76ZM169.275 20.44C167.175 20.44 165.705 21.98 165.705 24.36C165.705 26.88 166.965 28.14 169.065 28.14C171.165 28.14 172.565 26.53 172.565 24.15C172.565 21.91 171.375 20.44 169.275 20.44ZM169.205 21.56C170.605 21.56 171.095 22.68 171.095 24.22C171.095 26.04 170.535 27.02 169.135 27.02C167.735 27.02 167.175 25.97 167.175 24.29C167.175 22.47 167.805 21.56 169.205 21.56ZM176.826 21.602L176.7 20.58L174.39 20.65V21.42L175.58 21.7V26.88L174.39 27.23V28H178.38V27.23L176.98 26.88V22.722C177.288 22.316 177.96 21.63 179.01 21.63L179.22 22.68H180.13L180.2 20.65C180.2 20.65 179.64 20.44 178.94 20.44C177.988 20.44 177.176 21.21 176.826 21.602ZM184.467 21.42V20.58L181.177 20.65V21.42L182.017 21.63L184.523 28.028C183.711 29.806 183.291 30.24 182.059 30.24C181.905 30.24 181.765 30.24 181.597 30.226L181.471 31.29C181.471 31.29 182.017 31.36 182.367 31.36C184.677 31.36 185.405 29.05 186.147 27.104L188.135 21.56L189.045 21.42V20.58L185.727 20.65V21.42L186.707 21.63L185.167 26.46L183.487 21.56L184.467 21.42ZM86.38 43.6L86.1 42.13H84.98V44.58C84.98 44.58 86.394 45.14 87.864 45.14C89.824 45.14 91.518 44.174 91.518 42.074C91.518 38.924 86.478 39.736 86.478 37.608C86.478 36.908 87.08 36.25 88.34 36.25C89.11 36.25 89.824 36.502 89.824 36.502L90.3 38H91.21L91.28 35.62C91.28 35.62 89.656 35.06 88.326 35.06C86.576 35.06 85.008 35.886 85.008 37.846C85.008 41.192 90.062 40.296 90.062 42.452C90.062 43.446 88.942 43.95 87.92 43.95C87.01 43.95 86.38 43.6 86.38 43.6ZM95.0835 41.5L99.9135 41.472C99.9135 41.472 99.9835 41.08 99.9835 40.73C99.9835 38.63 99.0735 37.44 97.0435 37.44C95.0135 37.44 93.6135 39.12 93.6135 41.36C93.6135 43.67 94.7335 45.14 96.9735 45.14C98.6535 45.14 99.9555 43.978 99.9555 43.978L99.4655 43.25C99.4655 43.25 98.5135 44.02 97.1135 44.02C95.9095 44.02 95.0835 43.04 95.0835 41.5ZM98.4995 40.45H95.1395C95.2235 39.4 95.8535 38.532 96.9735 38.532C98.0935 38.532 98.4995 39.4 98.4995 40.45ZM104.31 38.602L104.184 37.58L101.874 37.65V38.42L103.064 38.7V43.88L101.874 44.23V45H105.864V44.23L104.464 43.88V39.722C104.772 39.316 105.444 38.63 106.494 38.63L106.704 39.68H107.614L107.684 37.65C107.684 37.65 107.124 37.44 106.424 37.44C105.472 37.44 104.66 38.21 104.31 38.602ZM111.742 38.42V37.58L108.592 37.65V38.42L109.292 38.63L111.588 45H113.128L115.508 38.56L116.278 38.42V37.58L113.142 37.65V38.42L114.108 38.63L112.428 43.74L110.762 38.56L111.742 38.42ZM118.512 35.27C118.512 35.9 118.862 36.25 119.422 36.25C119.842 36.25 120.332 35.9 120.332 35.27C120.332 34.57 119.982 34.29 119.422 34.29C118.932 34.29 118.512 34.64 118.512 35.27ZM120.192 43.88V37.58L117.602 37.65V38.42L118.792 38.7V43.88L117.602 44.23V45H121.242V44.23L120.192 43.88ZM128.032 39.89H128.942L129.012 38C129.012 38 127.892 37.44 126.632 37.44C124.392 37.44 122.992 39.05 122.992 41.29C122.992 43.67 124.182 45.14 126.492 45.14C128.032 45.14 129.292 44.02 129.292 44.02L128.802 43.18C128.802 43.18 127.962 44.02 126.632 44.02C125.302 44.02 124.462 43.04 124.462 41.15C124.462 39.4 125.232 38.56 126.562 38.56C127.262 38.56 127.822 38.7 127.822 38.7L128.032 39.89ZM132.298 41.5L137.128 41.472C137.128 41.472 137.198 41.08 137.198 40.73C137.198 38.63 136.288 37.44 134.258 37.44C132.228 37.44 130.828 39.12 130.828 41.36C130.828 43.67 131.948 45.14 134.188 45.14C135.868 45.14 137.17 43.978 137.17 43.978L136.68 43.25C136.68 43.25 135.728 44.02 134.328 44.02C133.124 44.02 132.298 43.04 132.298 41.5ZM135.714 40.45H132.354C132.438 39.4 133.068 38.532 134.188 38.532C135.308 38.532 135.714 39.4 135.714 40.45ZM140.153 42.76H139.173V44.832C139.173 44.832 140.097 45.14 141.385 45.14C143.065 45.14 144.465 44.356 144.465 42.746C144.465 40.352 140.559 40.926 140.559 39.428C140.559 38.714 141.091 38.49 141.805 38.49C142.505 38.49 142.939 38.658 142.939 38.658L143.163 39.75H144.073L144.115 37.86C144.115 37.86 142.827 37.44 141.721 37.44C140.279 37.44 139.159 38.168 139.159 39.624C139.159 42.172 143.065 41.472 143.065 42.984C143.065 43.852 142.323 44.09 141.483 44.09C140.727 44.09 140.307 43.964 140.307 43.964L140.153 42.76Z" fill="white"/>
</svg>
